<?xml version="1.0" standalone="no"?>
<!DOCTYPE svg PUBLIC "-//W3C//DTD SVG 20010904//EN"
 "http://www.w3.org/TR/2001/REC-SVG-20010904/DTD/svg10.dtd">
<svg version="1.0" xmlns="http://www.w3.org/2000/svg"
 width="1920.000000pt" height="1080.000000pt" viewBox="0 0 1920.000000 1080.000000"
 preserveAspectRatio="xMidYMid meet">

<g transform="translate(0.000000,1080.000000) scale(0.100000,-0.100000)"
fill="#000000" stroke="none">
<path d="M5392 6797 l-503 -503 30 -29 c17 -17 31 -39 31 -50 0 -22 -127 -155
-148 -155 -8 0 -43 29 -80 65 -36 36 -69 65 -72 65 -3 0 -19 -13 -35 -30 -16
-16 -33 -30 -39 -30 -5 0 -25 14 -43 32 l-33 32 -28 -27 c-15 -15 -35 -27 -43
-27 -8 0 -46 31 -84 70 l-69 70 -37 -36 -36 -36 -36 31 -35 31 -28 -30 c-36
-38 -50 -38 -91 2 l-33 32 -33 -32 c-41 -40 -56 -40 -92 -2 l-28 29 -35 -30
-35 -31 -36 36 -37 36 -72 -70 c-39 -38 -77 -70 -84 -70 -6 0 -27 14 -45 32
l-33 32 -220 -219 -219 -219 35 -38 c18 -21 34 -40 34 -43 0 -3 -16 -22 -35
-43 l-34 -39 29 -28 c17 -16 30 -36 30 -45 0 -8 -29 -44 -65 -80 l-64 -64 35
-38 c33 -37 34 -39 18 -64 -9 -13 -26 -30 -37 -35 -18 -10 -17 -13 17 -48 20
-20 36 -41 36 -47 0 -6 -16 -25 -35 -44 l-35 -34 31 -32 c31 -32 32 -34 15
-59 -9 -14 -20 -25 -25 -25 -5 0 -12 -8 -15 -17 -4 -11 4 -27 24 -48 16 -17
30 -35 30 -40 0 -5 -14 -24 -32 -42 l-32 -33 32 -33 c18 -18 32 -37 32 -42 0
-5 -13 -23 -30 -40 l-30 -31 333 -332 333 -333 24 26 c30 32 60 32 90 0 29
-30 35 -31 58 -4 34 41 49 42 90 4 l39 -34 28 29 c35 37 54 38 85 5 l24 -25
31 30 c39 38 64 38 100 0 l29 -30 31 30 c39 38 51 38 90 0 l32 -31 64 66 c35
35 71 65 80 65 8 0 28 -14 44 -30 l29 -30 31 30 c39 38 57 38 95 -2 l31 -32
221 221 221 221 -32 32 c-17 18 -31 40 -31 49 0 8 32 48 71 87 66 67 70 73 52
83 -11 5 -28 21 -37 35 -15 24 -15 27 14 59 l29 34 -29 28 c-38 36 -38 54 0
90 l29 28 -34 39 c-19 21 -35 40 -35 43 0 3 16 22 35 43 l34 39 -29 28 c-17
16 -30 33 -30 39 0 5 14 25 32 43 l32 33 -67 68 c-37 37 -67 74 -67 82 0 8 12
27 27 42 l27 28 -32 33 c-40 41 -40 53 -1 93 l31 32 -66 63 c-36 34 -66 70
-66 79 0 8 33 49 74 89 82 81 79 81 134 21 l23 -25 504 509 505 509 0 183 0
184 -188 0 -187 0 -503 -503z m-1445 -769 l33 -32 35 34 35 34 38 -37 38 -37
37 37 37 38 73 -73 c40 -39 77 -72 83 -72 6 0 23 14 39 30 16 17 33 30 39 30
14 0 446 -432 446 -446 0 -5 -13 -23 -30 -39 -16 -16 -30 -34 -30 -40 0 -6 29
-40 65 -75 36 -35 65 -68 65 -72 0 -4 -15 -23 -34 -42 l-34 -34 34 -33 c19
-18 34 -38 34 -44 0 -6 -14 -24 -30 -40 l-30 -29 37 -38 37 -38 -37 -38 -37
-38 30 -29 c16 -16 30 -33 30 -39 0 -6 -32 -43 -72 -83 l-72 -73 37 -38 37
-38 -190 -189 -190 -190 -37 38 -38 37 -77 -77 -78 -77 -35 34 -35 34 -35 -34
-35 -34 -38 37 -38 37 -37 -37 -37 -37 -38 37 -38 37 -34 -35 c-19 -19 -37
-35 -41 -35 -4 0 -37 32 -75 70 l-68 70 -36 -35 c-20 -19 -40 -35 -46 -35 -5
0 -95 85 -199 190 l-189 190 39 40 39 40 -72 73 -72 72 37 38 37 37 -39 40
-39 40 37 37 37 37 -37 38 -37 38 34 35 34 35 -34 35 -34 35 77 78 77 77 -37
38 -38 37 227 227 c222 222 227 226 250 211 13 -8 30 -27 38 -42 l14 -27 -222
-222 -222 -223 33 -32 33 -32 222 223 222 222 -30 33 c-16 18 -30 36 -30 40 0
7 142 152 149 152 3 0 20 -14 38 -32z"/>
<path d="M3868 5873 l-37 -38 35 -35 34 -34 37 37 38 37 -35 35 -36 35 -36
-37z"/>
<path d="M3340 5345 l-34 -35 35 -35 35 -35 34 35 34 35 -35 35 -35 35 -34
-35z"/>
<path d="M1010 5165 l0 -1065 255 0 255 0 0 795 0 795 90 0 90 0 0 -265 0
-265 110 0 110 0 0 -265 0 -265 95 0 95 0 0 -265 0 -265 370 0 370 0 0 1065 0
1065 -260 0 -260 0 0 -795 0 -795 -85 0 -85 0 0 265 0 265 -110 0 -110 0 0
265 0 265 -95 0 -95 0 0 265 0 265 -370 0 -370 0 0 -1065z"/>
<path d="M5890 6100 l0 -130 -90 0 -90 0 0 -130 0 -130 -100 0 -100 0 0 -560
0 -560 100 0 100 0 0 -100 0 -100 90 0 90 0 0 -145 0 -145 550 0 550 0 0 145
0 145 90 0 90 0 0 100 0 100 100 0 100 0 0 560 0 560 -100 0 -100 0 0 130 0
130 -90 0 -90 0 0 130 0 130 -550 0 -550 0 0 -130z m818 -257 l3 -133 84 0 85
0 0 -520 0 -520 -85 0 -85 0 0 -145 0 -145 -270 0 -270 0 0 145 0 145 -85 0
-85 0 0 520 0 520 85 0 85 0 0 128 c0 71 3 132 7 135 4 4 124 6 267 5 l261 -3
3 -132z"/>
<path d="M7770 5165 l0 -1065 815 0 815 0 0 145 0 145 120 0 120 0 0 365 0
365 -120 0 -120 0 0 150 0 150 120 0 120 0 0 260 0 260 -120 0 -120 0 0 145 0
145 -815 0 -815 0 0 -1065z m1348 513 l2 -268 -415 0 -415 0 0 270 0 270 413
-2 412 -3 3 -267z m0 -925 l-3 -368 -412 -3 -413 -2 0 370 0 370 415 0 415 0
-2 -367z"/>
<path d="M10030 6090 l0 -140 300 0 300 0 0 -925 0 -925 260 0 260 0 0 925 0
925 305 0 305 0 0 140 0 140 -865 0 -865 0 0 -140z"/>
<path d="M12150 5165 l0 -1065 830 0 830 0 0 140 0 140 -570 0 -570 0 0 370 0
370 570 0 570 0 0 145 0 145 -570 0 -570 0 0 270 0 270 570 0 570 0 0 140 0
140 -830 0 -830 0 0 -1065z"/>
<path d="M14410 6085 l0 -145 -105 0 -105 0 0 -305 0 -305 105 0 105 0 0 -145
0 -145 573 -2 572 -3 0 -325 0 -325 -417 -3 -418 -2 0 180 0 180 -260 0 -260
0 0 -175 0 -175 105 0 105 0 0 -145 0 -145 730 0 730 0 0 145 0 145 100 0 100
0 0 320 0 320 -100 0 -100 0 0 145 0 145 -575 0 -575 0 0 315 0 315 418 -2
417 -3 3 -177 2 -178 255 0 255 0 0 175 0 175 -100 0 -100 0 0 145 0 145 -730
0 -730 0 0 -145z"/>
<path d="M16470 6090 l0 -140 300 0 300 0 0 -925 0 -925 260 0 260 0 0 925 0
925 300 0 300 0 0 140 0 140 -860 0 -860 0 0 -140z"/>
</g>
</svg>
